<?xml version="1.0" encoding="UTF-8" standalone="no"?>
<!-- Created with Inkscape (http://www.inkscape.org/) -->

<svg
   width="210mm"
   height="297mm"
   viewBox="0 0 210 297"
   version="1.1"
   id="svg1"
   inkscape:version="1.3 (0e150ed6c4, 2023-07-21)"
   sodipodi:docname="BendySAOBufferLayer.svg"
   xmlns:inkscape="http://www.inkscape.org/namespaces/inkscape"
   xmlns:sodipodi="http://sodipodi.sourceforge.net/DTD/sodipodi-0.dtd"
   xmlns="http://www.w3.org/2000/svg"
   xmlns:svg="http://www.w3.org/2000/svg">
  <sodipodi:namedview
     id="namedview1"
     pagecolor="#ffffff"
     bordercolor="#666666"
     borderopacity="1.0"
     inkscape:showpageshadow="2"
     inkscape:pageopacity="0.0"
     inkscape:pagecheckerboard="0"
     inkscape:deskcolor="#d1d1d1"
     inkscape:document-units="mm"
     inkscape:zoom="1.094"
     inkscape:cx="396.7"
     inkscape:cy="561.3"
     inkscape:window-width="2560"
     inkscape:window-height="1387"
     inkscape:window-x="-8"
     inkscape:window-y="892"
     inkscape:window-maximized="1"
     inkscape:current-layer="layer1" />
  <defs
     id="defs1" />
  <g
     inkscape:label="Layer 1"
     inkscape:groupmode="layer"
     id="layer1">
    <g
       id="g41"
       transform="translate(39.42,-4.115)">
      <path
         id="path32"
         style="fill:none;fill-rule:evenodd;stroke:#ff0000;stroke-width:0.200008;stroke-linecap:round;stroke-linejoin:round;stroke-opacity:1"
         d="M 65.22,107.4 H 67.22 C 67.32,107.4 67.42,107.5 67.42,107.7 V 113 C 67.42,113.1 67.32,113.3 67.22,113.3 H 65.22 C 65.12,113.3 64.92,113.1 64.92,113 V 107.7 C 64.92,107.5 65.12,107.4 65.22,107.4 Z M 49.26,107.4 H 51.17 C 51.3,107.4 51.4,107.5 51.4,107.7 V 113 C 51.4,113.1 51.3,113.3 51.17,113.3 H 49.26 C 49.12,113.3 49.01,113.1 49.01,113 V 107.7 C 49.01,107.5 49.12,107.4 49.26,107.4 Z M 60.97,100.7 C 61.11,100.9 61.11,101.4 61.11,101.4 V 114.3 C 61.11,114.4 60.98,114.6 60.82,114.6 H 55.42 C 55.25,114.6 55.12,114.4 55.12,114.3 V 101.2 C 55.12,101.2 55.13,100.7 55.34,100.4 55.65,99.99 57.49,98.79 58.13,98.79 58.97,98.79 59.58,99.39 60.25,99.89 60.58,100.2 60.81,100.4 60.97,100.7 Z" />
      <path
         style="fill:none;fill-rule:evenodd;stroke:#00ff00;stroke-width:0.200008;stroke-linecap:round;stroke-linejoin:round"
         d="M 47.8,99.59 C 47.8,99.69 47.79,99.99 47.79,100.4 47.78,104.1 47.8,117.7 47.8,117.7 47.8,117.7 49.5,119.7 50.34,120.3 50.47,120.4 50.57,120.6 50.74,120.6 50.91,120.6 51.02,120.5 51.29,120.2 52.29,119.4 54.88,117.5 58.16,117.4 61.46,117.5 64.6,119.8 65.22,120.3 65.82,120.8 65.42,120.6 65.62,120.6 65.82,120.6 65.92,120.4 66.12,120.3 L 68.52,117.7 V 99.89 C 68.52,99.89 68.49,99.49 68.31,99.29 67.96,98.79 67.06,98.89 66.51,98.89 65.55,98.79 62.9,98.79 61.09,98.69 60.74,98.69 60.72,97.59 60.42,97.49 59.73,97.39 58.76,97.39 58.06,97.39 55.48,97.39 50.82,97.19 48.71,97.59 48,97.79 47.81,99.09 47.8,99.59 Z"
         id="path8-1" />
    </g>
    <g
       id="g42"
       transform="translate(14.07,63.12)">
      <path
         id="path35"
         style="fill:none;fill-rule:evenodd;stroke:#ff0000;stroke-width:0.200008;stroke-linecap:round;stroke-linejoin:round;stroke-opacity:1"
         d="M 90.57,109.8 H 92.57 C 92.67,109.8 92.77,109.9 92.77,110.1 V 115.4 C 92.77,115.5 92.67,115.7 92.57,115.7 H 90.57 C 90.47,115.7 90.27,115.5 90.27,115.4 V 110.1 C 90.27,109.9 90.47,109.8 90.57,109.8 Z M 74.61,109.8 H 76.52 C 76.65,109.8 76.75,109.9 76.75,110.1 V 115.4 C 76.75,115.5 76.65,115.7 76.52,115.7 H 74.61 C 74.47,115.7 74.36,115.5 74.36,115.4 V 110.1 C 74.36,109.9 74.47,109.8 74.61,109.8 Z M 83.51,99.59 C 85.61,99.59 87.19,101 87.19,103.6 V 116.7 C 87.19,116.8 87.06,117 86.9,117 H 80.12 C 79.95,117 79.82,116.8 79.82,116.7 V 103.6 C 79.82,100.9 81.4,99.49 83.51,99.59" />
      <path
         style="fill:none;fill-rule:evenodd;stroke:#00ff00;stroke-width:0.200008;stroke-linecap:round;stroke-linejoin:round"
         d="M 90.97,123 C 91.17,123 91.27,122.8 91.47,122.7 L 93.87,120.1 V 102.5 C 93.77,98.29 87.75,95.09 83.51,95.09 79.27,95.09 73.24,98.29 73.15,102.5 73.12,103.7 73.15,120.1 73.15,120.1 73.15,120.1 74.85,122.1 75.69,122.7 75.82,122.8 75.92,123 76.09,123 76.26,123 76.37,122.9 76.64,122.6 77.64,121.8 80.23,119.9 83.51,119.8 86.81,119.9 89.95,122.2 90.57,122.7 91.17,123.2 90.77,123 90.97,123 Z"
         id="path9-1" />
    </g>
    <g
       id="g40"
       transform="rotate(180,65.38,117.4)">
      <path
         id="path38"
         style="fill:none;fill-rule:evenodd;stroke:#ff0000;stroke-width:0.200008;stroke-linecap:round;stroke-linejoin:round;stroke-opacity:1"
         d="M 40.27,109 H 42.27 C 42.37,109 42.47,109.1 42.47,109.3 V 114.6 C 42.47,114.7 42.37,114.9 42.27,114.9 H 40.27 C 40.17,114.9 39.97,114.7 39.97,114.6 V 109.3 C 39.97,109.1 40.17,109 40.27,109 Z M 24.31,109 H 26.22 C 26.35,109 26.45,109.1 26.45,109.3 V 114.6 C 26.45,114.7 26.35,114.9 26.22,114.9 H 24.31 C 24.17,114.9 24.06,114.7 24.06,114.6 V 109.3 C 24.06,109.1 24.17,109 24.31,109 Z M 36.02,102.3 C 36.16,102.5 36.16,103 36.16,103 V 115.9 C 36.16,116 36.03,116.2 35.87,116.2 H 30.47 C 30.3,116.2 30.17,116 30.17,115.9 V 102.8 C 30.17,102.8 30.18,102.3 30.39,102 30.7,101.6 32.54,100.4 33.18,100.4 34.02,100.4 34.63,101 35.3,101.5 35.63,101.8 35.86,102 36.02,102.3 Z" />
      <path
         style="fill:none;fill-rule:evenodd;stroke:#00ff00;stroke-width:0.200008;stroke-linecap:round;stroke-linejoin:round"
         d="M 22.85,101.2 C 22.85,101.3 22.84,101.6 22.84,102 22.83,105.7 22.85,116.9 22.85,116.9 23.16,116.8 25.35,116.9 27.57,116.9 27.96,116.9 28.2,119.6 28.63,119.6 H 37.8 C 38.54,119.6 38.38,116.9 39.13,116.9 H 43.57 V 101.5 C 43.57,101.5 43.54,101.1 43.36,100.9 43.01,100.4 42.11,100.5 41.56,100.5 40.6,100.4 37.95,100.4 36.14,100.3 35.79,100.3 35.77,99.19 35.47,99.09 34.78,98.99 33.81,98.99 33.11,98.99 30.53,98.99 25.87,98.79 23.76,99.19 23.05,99.39 22.86,100.7 22.85,101.2 Z"
         id="path11-1" />
    </g>
    <g
       id="g43"
       transform="translate(39.42,39.42)">
      <path
         id="path42"
         style="fill:none;fill-rule:evenodd;stroke:#ff0000;stroke-width:0.200008;stroke-linecap:round;stroke-linejoin:round;stroke-opacity:1"
         d="M 65.22,107.4 H 67.22 C 67.32,107.4 67.42,107.5 67.42,107.7 V 113 C 67.42,113.1 67.32,113.3 67.22,113.3 H 65.22 C 65.12,113.3 64.92,113.1 64.92,113 V 107.7 C 64.92,107.5 65.12,107.4 65.22,107.4 Z M 49.26,107.4 H 51.17 C 51.3,107.4 51.4,107.5 51.4,107.7 V 113 C 51.4,113.1 51.3,113.3 51.17,113.3 H 49.26 C 49.12,113.3 49.01,113.1 49.01,113 V 107.7 C 49.01,107.5 49.12,107.4 49.26,107.4 Z M 60.97,100.7 C 61.11,100.9 61.11,101.4 61.11,101.4 V 114.3 C 61.11,114.4 60.98,114.6 60.82,114.6 H 55.42 C 55.25,114.6 55.12,114.4 55.12,114.3 V 101.2 C 55.12,101.2 55.13,100.7 55.34,100.4 55.65,99.99 57.49,98.79 58.13,98.79 58.97,98.79 59.58,99.39 60.25,99.89 60.58,100.2 60.81,100.4 60.97,100.7 Z" />
      <path
         style="fill:none;fill-rule:evenodd;stroke:#00ff00;stroke-width:0.200008;stroke-linecap:round;stroke-linejoin:round"
         d="M 47.8,99.59 C 47.8,99.69 47.79,99.99 47.79,100.4 47.78,104.1 47.8,117.7 47.8,117.7 47.8,117.7 49.5,119.7 50.34,120.3 50.47,120.4 50.57,120.6 50.74,120.6 50.91,120.6 51.02,120.5 51.29,120.2 52.29,119.4 54.88,117.5 58.16,117.4 61.46,117.5 64.6,119.8 65.22,120.3 65.82,120.8 65.42,120.6 65.62,120.6 65.82,120.6 65.92,120.4 66.12,120.3 L 68.52,117.7 V 99.89 C 68.52,99.89 68.49,99.49 68.31,99.29 67.96,98.79 67.06,98.89 66.51,98.89 65.55,98.79 62.9,98.79 61.09,98.69 60.74,98.69 60.72,97.59 60.42,97.49 59.73,97.39 58.76,97.39 58.06,97.39 55.48,97.39 50.82,97.19 48.71,97.59 48,97.79 47.81,99.09 47.8,99.59 Z"
         id="path43" />
    </g>
  </g>
</svg>
